<mxfile host="app.diagrams.net" modified="2024-02-23T13:00:14.864Z" agent="Mozilla/5.0 (Windows NT 10.0; WOW64) AppleWebKit/537.36 (KHTML, like Gecko) Chrome/86.0.4240.198 Safari/537.36" etag="UodPjoqINFJOFHYSZ0L6" version="23.1.5" type="github">
  <diagram name="第 1 页" id="ditSqDSEUK5dPZo--fto">
    <mxGraphModel dx="936" dy="543" grid="0" gridSize="10" guides="1" tooltips="1" connect="1" arrows="1" fold="1" page="1" pageScale="1" pageWidth="4681" pageHeight="3300" math="0" shadow="0">
      <root>
        <mxCell id="0" />
        <mxCell id="1" parent="0" />
        <mxCell id="l3mklh4BI5p6LIZUkE9t-1" value="&lt;font style=&quot;font-size: 16px;&quot;&gt;异构集群&lt;/font&gt;" style="rounded=0;whiteSpace=wrap;html=1;fillColor=#ffe6cc;strokeColor=#d79b00;" vertex="1" parent="1">
          <mxGeometry x="111" y="497" width="108" height="50" as="geometry" />
        </mxCell>
        <mxCell id="l3mklh4BI5p6LIZUkE9t-2" value="" style="rounded=0;whiteSpace=wrap;html=1;" vertex="1" parent="1">
          <mxGeometry x="256" y="497" width="591" height="50" as="geometry" />
        </mxCell>
        <mxCell id="l3mklh4BI5p6LIZUkE9t-3" value="&lt;span style=&quot;font-size: 16px;&quot;&gt;存储层&lt;/span&gt;" style="rounded=0;whiteSpace=wrap;html=1;fillColor=#ffe6cc;strokeColor=#d79b00;" vertex="1" parent="1">
          <mxGeometry x="111" y="394.5" width="108" height="50" as="geometry" />
        </mxCell>
        <mxCell id="l3mklh4BI5p6LIZUkE9t-4" value="" style="rounded=0;whiteSpace=wrap;html=1;" vertex="1" parent="1">
          <mxGeometry x="256" y="376" width="591" height="87" as="geometry" />
        </mxCell>
        <mxCell id="l3mklh4BI5p6LIZUkE9t-5" value="&lt;span style=&quot;font-size: 16px;&quot;&gt;计算层&lt;/span&gt;" style="rounded=0;whiteSpace=wrap;html=1;fillColor=#ffe6cc;strokeColor=#d79b00;" vertex="1" parent="1">
          <mxGeometry x="111" y="288" width="108" height="50" as="geometry" />
        </mxCell>
        <mxCell id="l3mklh4BI5p6LIZUkE9t-6" value="&lt;span style=&quot;font-size: 16px;&quot;&gt;服务层&lt;/span&gt;" style="rounded=0;whiteSpace=wrap;html=1;fillColor=#ffe6cc;strokeColor=#d79b00;" vertex="1" parent="1">
          <mxGeometry x="111" y="178" width="108" height="50" as="geometry" />
        </mxCell>
        <mxCell id="l3mklh4BI5p6LIZUkE9t-7" value="&lt;span style=&quot;font-size: 16px;&quot;&gt;应用层&lt;/span&gt;" style="rounded=0;whiteSpace=wrap;html=1;fillColor=#ffe6cc;strokeColor=#d79b00;" vertex="1" parent="1">
          <mxGeometry x="111" y="94" width="108" height="50" as="geometry" />
        </mxCell>
        <mxCell id="l3mklh4BI5p6LIZUkE9t-11" style="edgeStyle=orthogonalEdgeStyle;rounded=0;orthogonalLoop=1;jettySize=auto;html=1;exitX=1;exitY=0.5;exitDx=0;exitDy=0;entryX=0;entryY=0.5;entryDx=0;entryDy=0;startArrow=classic;startFill=1;" edge="1" parent="1" source="l3mklh4BI5p6LIZUkE9t-8" target="l3mklh4BI5p6LIZUkE9t-10">
          <mxGeometry relative="1" as="geometry" />
        </mxCell>
        <mxCell id="l3mklh4BI5p6LIZUkE9t-39" value="私有访问" style="edgeLabel;html=1;align=center;verticalAlign=middle;resizable=0;points=[];" vertex="1" connectable="0" parent="l3mklh4BI5p6LIZUkE9t-11">
          <mxGeometry x="-0.35" y="-1" relative="1" as="geometry">
            <mxPoint x="14" y="7" as="offset" />
          </mxGeometry>
        </mxCell>
        <mxCell id="l3mklh4BI5p6LIZUkE9t-8" value="&lt;font style=&quot;font-size: 16px;&quot;&gt;数仓集群&lt;/font&gt;" style="rounded=0;whiteSpace=wrap;html=1;fillColor=#f5f5f5;fontColor=#333333;strokeColor=#666666;" vertex="1" parent="1">
          <mxGeometry x="325" y="505.75" width="183" height="32.5" as="geometry" />
        </mxCell>
        <mxCell id="l3mklh4BI5p6LIZUkE9t-10" value="&lt;font style=&quot;font-size: 16px;&quot;&gt;Hadoop集群&lt;/font&gt;" style="rounded=0;whiteSpace=wrap;html=1;fillColor=#f5f5f5;fontColor=#333333;strokeColor=#666666;" vertex="1" parent="1">
          <mxGeometry x="601" y="505.75" width="183" height="32.5" as="geometry" />
        </mxCell>
        <mxCell id="l3mklh4BI5p6LIZUkE9t-38" style="edgeStyle=orthogonalEdgeStyle;rounded=0;orthogonalLoop=1;jettySize=auto;html=1;exitX=0;exitY=0.5;exitDx=0;exitDy=0;entryX=1;entryY=0.5;entryDx=0;entryDy=0;startArrow=classic;startFill=1;" edge="1" parent="1" source="l3mklh4BI5p6LIZUkE9t-12" target="l3mklh4BI5p6LIZUkE9t-20">
          <mxGeometry relative="1" as="geometry" />
        </mxCell>
        <mxCell id="l3mklh4BI5p6LIZUkE9t-40" value="冷热数据分离" style="edgeLabel;html=1;align=center;verticalAlign=middle;resizable=0;points=[];" vertex="1" connectable="0" parent="l3mklh4BI5p6LIZUkE9t-38">
          <mxGeometry x="0.2811" y="-4" relative="1" as="geometry">
            <mxPoint x="17" y="15" as="offset" />
          </mxGeometry>
        </mxCell>
        <mxCell id="l3mklh4BI5p6LIZUkE9t-12" value="&lt;font style=&quot;font-size: 16px;&quot;&gt;HDFS数据湖&lt;/font&gt;" style="rounded=0;whiteSpace=wrap;html=1;fillColor=#f5f5f5;fontColor=#333333;strokeColor=#666666;" vertex="1" parent="1">
          <mxGeometry x="598" y="420" width="215" height="32.5" as="geometry" />
        </mxCell>
        <mxCell id="l3mklh4BI5p6LIZUkE9t-14" value="" style="rounded=0;whiteSpace=wrap;html=1;" vertex="1" parent="1">
          <mxGeometry x="256" y="178" width="591" height="50" as="geometry" />
        </mxCell>
        <mxCell id="l3mklh4BI5p6LIZUkE9t-15" value="&lt;span style=&quot;font-size: 16px;&quot;&gt;SQL计算服务&lt;/span&gt;" style="rounded=0;whiteSpace=wrap;html=1;fillColor=#f5f5f5;fontColor=#333333;strokeColor=#666666;" vertex="1" parent="1">
          <mxGeometry x="275" y="186.75" width="118" height="32.5" as="geometry" />
        </mxCell>
        <mxCell id="l3mklh4BI5p6LIZUkE9t-17" value="&lt;span style=&quot;font-size: 16px;&quot;&gt;机器学习服务&lt;/span&gt;" style="rounded=0;whiteSpace=wrap;html=1;fillColor=#f5f5f5;fontColor=#333333;strokeColor=#666666;" vertex="1" parent="1">
          <mxGeometry x="423" y="186.75" width="118" height="32.5" as="geometry" />
        </mxCell>
        <mxCell id="l3mklh4BI5p6LIZUkE9t-18" value="&lt;span style=&quot;font-size: 16px;&quot;&gt;深度学习服务&lt;/span&gt;" style="rounded=0;whiteSpace=wrap;html=1;fillColor=#f5f5f5;fontColor=#333333;strokeColor=#666666;" vertex="1" parent="1">
          <mxGeometry x="570" y="186.75" width="118" height="32.5" as="geometry" />
        </mxCell>
        <mxCell id="l3mklh4BI5p6LIZUkE9t-19" value="&lt;span style=&quot;font-size: 16px;&quot;&gt;实时数据服务&lt;/span&gt;" style="rounded=0;whiteSpace=wrap;html=1;fillColor=#f5f5f5;fontColor=#333333;strokeColor=#666666;" vertex="1" parent="1">
          <mxGeometry x="717" y="186.75" width="118" height="32.5" as="geometry" />
        </mxCell>
        <mxCell id="l3mklh4BI5p6LIZUkE9t-20" value="&lt;font style=&quot;font-size: 16px;&quot;&gt;内置缓存&lt;/font&gt;" style="rounded=0;whiteSpace=wrap;html=1;fillColor=#f5f5f5;fontColor=#333333;strokeColor=#666666;" vertex="1" parent="1">
          <mxGeometry x="317" y="420" width="183" height="32.5" as="geometry" />
        </mxCell>
        <mxCell id="l3mklh4BI5p6LIZUkE9t-21" value="&lt;font style=&quot;font-size: 16px;&quot;&gt;结构化&lt;/font&gt;" style="rounded=0;whiteSpace=wrap;html=1;fillColor=#f5f5f5;fontColor=#333333;strokeColor=#666666;" vertex="1" parent="1">
          <mxGeometry x="598" y="397.25" width="72" height="23" as="geometry" />
        </mxCell>
        <mxCell id="l3mklh4BI5p6LIZUkE9t-22" value="&lt;font style=&quot;font-size: 16px;&quot;&gt;半结构化&lt;/font&gt;" style="rounded=0;whiteSpace=wrap;html=1;fillColor=#f5f5f5;fontColor=#333333;strokeColor=#666666;" vertex="1" parent="1">
          <mxGeometry x="670" y="397" width="72" height="23" as="geometry" />
        </mxCell>
        <mxCell id="l3mklh4BI5p6LIZUkE9t-23" value="&lt;font style=&quot;font-size: 16px;&quot;&gt;非结构化&lt;/font&gt;" style="rounded=0;whiteSpace=wrap;html=1;fillColor=#f5f5f5;fontColor=#333333;strokeColor=#666666;" vertex="1" parent="1">
          <mxGeometry x="741" y="397" width="72" height="23" as="geometry" />
        </mxCell>
        <mxCell id="l3mklh4BI5p6LIZUkE9t-24" value="&lt;font style=&quot;font-size: 16px;&quot;&gt;cache&lt;/font&gt;" style="rounded=0;whiteSpace=wrap;html=1;fillColor=#f5f5f5;fontColor=#333333;strokeColor=#666666;" vertex="1" parent="1">
          <mxGeometry x="317" y="397" width="183" height="23" as="geometry" />
        </mxCell>
        <mxCell id="l3mklh4BI5p6LIZUkE9t-26" value="" style="rounded=0;whiteSpace=wrap;html=1;" vertex="1" parent="1">
          <mxGeometry x="256" y="94" width="591" height="50" as="geometry" />
        </mxCell>
        <mxCell id="l3mklh4BI5p6LIZUkE9t-27" value="&lt;span style=&quot;font-size: 16px;&quot;&gt;BI分析&lt;/span&gt;" style="rounded=0;whiteSpace=wrap;html=1;fillColor=#f5f5f5;fontColor=#333333;strokeColor=#666666;" vertex="1" parent="1">
          <mxGeometry x="275" y="102.75" width="118" height="32.5" as="geometry" />
        </mxCell>
        <mxCell id="l3mklh4BI5p6LIZUkE9t-28" value="&lt;span style=&quot;font-size: 16px;&quot;&gt;状态检测&lt;/span&gt;" style="rounded=0;whiteSpace=wrap;html=1;fillColor=#f5f5f5;fontColor=#333333;strokeColor=#666666;" vertex="1" parent="1">
          <mxGeometry x="423" y="102.75" width="118" height="32.5" as="geometry" />
        </mxCell>
        <mxCell id="l3mklh4BI5p6LIZUkE9t-29" value="&lt;span style=&quot;font-size: 16px;&quot;&gt;图像识别&lt;/span&gt;" style="rounded=0;whiteSpace=wrap;html=1;fillColor=#f5f5f5;fontColor=#333333;strokeColor=#666666;" vertex="1" parent="1">
          <mxGeometry x="717" y="102.75" width="118" height="32.5" as="geometry" />
        </mxCell>
        <mxCell id="l3mklh4BI5p6LIZUkE9t-30" value="&lt;span style=&quot;font-size: 16px;&quot;&gt;...&lt;/span&gt;" style="rounded=0;whiteSpace=wrap;html=1;fillColor=#f5f5f5;fontColor=#333333;strokeColor=#666666;" vertex="1" parent="1">
          <mxGeometry x="574" y="102.75" width="118" height="32.5" as="geometry" />
        </mxCell>
        <mxCell id="l3mklh4BI5p6LIZUkE9t-32" value="" style="rounded=0;whiteSpace=wrap;html=1;" vertex="1" parent="1">
          <mxGeometry x="256" y="258" width="591" height="87" as="geometry" />
        </mxCell>
        <mxCell id="l3mklh4BI5p6LIZUkE9t-33" value="&lt;font style=&quot;font-size: 16px;&quot;&gt;元数据管理&lt;/font&gt;" style="rounded=0;whiteSpace=wrap;html=1;fillColor=#f5f5f5;fontColor=#333333;strokeColor=#666666;" vertex="1" parent="1">
          <mxGeometry x="334" y="296.75" width="472" height="32.5" as="geometry" />
        </mxCell>
        <mxCell id="l3mklh4BI5p6LIZUkE9t-34" value="&lt;font style=&quot;font-size: 16px;&quot;&gt;Hive SQL&lt;/font&gt;" style="rounded=0;whiteSpace=wrap;html=1;fillColor=#f5f5f5;fontColor=#333333;strokeColor=#666666;" vertex="1" parent="1">
          <mxGeometry x="393" y="273.75" width="72" height="23" as="geometry" />
        </mxCell>
        <mxCell id="l3mklh4BI5p6LIZUkE9t-35" value="&lt;font style=&quot;font-size: 16px;&quot;&gt;Flink&lt;/font&gt;" style="rounded=0;whiteSpace=wrap;html=1;fillColor=#f5f5f5;fontColor=#333333;strokeColor=#666666;" vertex="1" parent="1">
          <mxGeometry x="521" y="273.75" width="72" height="23" as="geometry" />
        </mxCell>
        <mxCell id="l3mklh4BI5p6LIZUkE9t-36" value="&lt;font style=&quot;font-size: 16px;&quot;&gt;Spark&lt;/font&gt;" style="rounded=0;whiteSpace=wrap;html=1;fillColor=#f5f5f5;fontColor=#333333;strokeColor=#666666;" vertex="1" parent="1">
          <mxGeometry x="664" y="273.75" width="72" height="23" as="geometry" />
        </mxCell>
      </root>
    </mxGraphModel>
  </diagram>
</mxfile>
